<svg width="67" height="67" viewBox="0 0 67 67" fill="none" xmlns="http://www.w3.org/2000/svg">
<path d="M49.1334 14.8237L33.3605 6.33699C31.6855 5.44366 29.7034 5.44366 28.0284 6.33699L12.2834 14.8237C11.1388 15.4657 10.413 16.6941 10.413 18.0341C10.413 19.402 11.1109 20.6303 12.2834 21.2445L28.0563 29.7312C28.8938 30.1778 29.815 30.4012 30.7084 30.4012C31.6017 30.4012 32.5509 30.1778 33.3605 29.7312L49.1334 21.2445C50.278 20.6303 51.0038 19.402 51.0038 18.0341C51.0038 16.6941 50.278 15.4657 49.1334 14.8237Z" fill="#EDA415"/>
<path d="M25.46 32.6902L10.8038 25.3761C9.65921 24.7898 8.37504 24.8736 7.28629 25.5157C6.22546 26.1857 5.58337 27.3302 5.58337 28.5865V42.4332C5.58337 44.834 6.92337 46.9836 9.07296 48.0723L23.7292 55.3865C24.2317 55.6377 24.79 55.7773 25.3484 55.7773C25.9905 55.7773 26.6605 55.5819 27.2467 55.2469C28.3075 54.5769 28.9496 53.4323 28.9496 52.1761V38.3294C28.9217 35.9286 27.5817 33.779 25.46 32.6902Z" fill="#EDA415"/>
<path d="M55.8335 28.5865V35.454C54.4935 35.0632 53.0697 34.8957 51.646 34.8957C47.8493 34.8957 44.1364 36.2077 41.2051 38.5527C37.1851 41.7073 34.8959 46.4811 34.8959 51.6457C34.8959 53.0136 35.0634 54.3815 35.4264 55.6936C35.0076 55.6377 34.5889 55.4702 34.198 55.219C33.1372 54.5769 32.4951 53.4323 32.4951 52.1761V38.3294C32.4951 35.9286 33.8351 33.779 35.9568 32.6902L50.613 25.3761C51.7576 24.7898 53.0418 24.8736 54.1305 25.5157C55.1914 26.1857 55.8335 27.3302 55.8335 28.5865Z" fill="#EDA415"/>
<path d="M61.3608 43.7454C59.0716 40.9258 55.582 39.1392 51.6458 39.1392C48.6866 39.1392 45.9508 40.1721 43.8012 41.9029C40.8978 44.1921 39.0833 47.7375 39.0833 51.7017C39.0833 54.0467 39.7533 56.28 40.8978 58.1783C41.6516 59.4346 42.6008 60.5233 43.7174 61.4167H43.7453C45.8949 63.2033 48.6587 64.2642 51.6458 64.2642C54.8283 64.2642 57.7037 63.0917 59.9091 61.1375C60.8862 60.3 61.7237 59.295 62.3937 58.1783C63.5383 56.28 64.2083 54.0467 64.2083 51.7017C64.2083 48.6867 63.1474 45.895 61.3608 43.7454ZM57.9549 50.1383L51.2549 56.3358C50.8641 56.6987 50.3337 56.8942 49.8312 56.8942C49.3008 56.8942 48.7703 56.6987 48.3516 56.28L45.2528 53.1812C44.4432 52.3717 44.4432 51.0317 45.2528 50.2221C46.0624 49.4125 47.4024 49.4125 48.212 50.2221L49.887 51.8971L55.1074 47.0675C55.9449 46.2858 57.2849 46.3417 58.0666 47.1792C58.8762 48.0446 58.8203 49.3567 57.9549 50.1383Z" fill="#EDA415"/>
</svg>
