<svg width="67" height="67" viewBox="0 0 67 67" fill="none" xmlns="http://www.w3.org/2000/svg">
<path d="M47.4584 61.4165H19.5417C18.3972 61.4165 17.448 60.4673 17.448 59.3228C17.448 58.1782 18.3972 57.229 19.5417 57.229H47.4584C48.603 57.229 49.5522 58.1782 49.5522 59.3228C49.5522 60.4673 48.603 61.4165 47.4584 61.4165Z" fill="#EDA415"/>
<path d="M56.8103 15.4098L45.6436 23.394C44.164 24.4548 42.0424 23.8127 41.4003 22.1098L36.124 8.03982C35.2307 5.61107 31.797 5.61107 30.9036 8.03982L25.5995 22.0819C24.9574 23.8127 22.8636 24.4548 21.384 23.3661L10.2174 15.3819C7.98405 13.8186 5.02488 16.024 5.94613 18.6202L17.5595 51.1432C17.9503 52.2598 19.0111 52.9857 20.1836 52.9857H46.7882C47.9607 52.9857 49.0215 52.2319 49.4124 51.1432L61.0257 18.6202C61.9749 16.024 59.0157 13.8186 56.8103 15.4098ZM40.479 41.1769H26.5207C25.3761 41.1769 24.427 40.2277 24.427 39.0832C24.427 37.9386 25.3761 36.9894 26.5207 36.9894H40.479C41.6236 36.9894 42.5728 37.9386 42.5728 39.0832C42.5728 40.2277 41.6236 41.1769 40.479 41.1769Z" fill="#EDA415"/>
</svg>
