<svg width="24" height="24" viewBox="0 0 24 24" fill="none" xmlns="http://www.w3.org/2000/svg">
<path d="M15.3234 11.8023C15.3234 13.7497 13.7497 15.3234 11.8023 15.3234C9.85491 15.3234 8.28125 13.7497 8.28125 11.8023C8.28125 9.85491 9.85491 8.28125 11.8023 8.28125C13.7497 8.28125 15.3234 9.85491 15.3234 11.8023Z" stroke="#292D32" stroke-width="1.47531" stroke-linecap="round" stroke-linejoin="round"/>
<path d="M11.8024 19.9362C15.2743 19.9362 18.5101 17.8905 20.7624 14.3497C21.6476 12.963 21.6476 10.632 20.7624 9.24518C18.5101 5.70445 15.2743 3.65869 11.8024 3.65869C8.33049 3.65869 5.09466 5.70445 2.84235 9.24518C1.95717 10.632 1.95717 12.963 2.84235 14.3497C5.09466 17.8905 8.33049 19.9362 11.8024 19.9362Z" stroke="#292D32" stroke-width="1.47531" stroke-linecap="round" stroke-linejoin="round"/>
</svg>
