<svg width="118" height="15" viewBox="0 0 118 15" fill="none" xmlns="http://www.w3.org/2000/svg">
<path d="M8.65318 1.05362L9.95145 3.65016C10.1285 4.00423 10.6006 4.3583 10.994 4.41732L13.3447 4.81073C14.8495 5.06645 15.2035 6.14834 14.1216 7.23023L12.2923 9.06945C11.9874 9.37434 11.8103 9.9743 11.9087 10.4071L12.43 12.679C12.8431 14.4691 11.889 15.1674 10.3055 14.233L8.1024 12.9249C7.69915 12.6889 7.05002 12.6889 6.64677 12.9249L4.43381 14.2232C2.85031 15.1575 1.89628 14.4592 2.30937 12.6692L2.83064 10.3972C2.92899 9.9743 2.75196 9.37434 2.44706 9.05961L0.627517 7.24007C-0.454374 6.15818 -0.100301 5.06645 1.40451 4.82057L3.75517 4.42715C4.14858 4.3583 4.62068 4.01407 4.79772 3.65999L6.09598 1.06345C6.7943 -0.352841 7.95487 -0.352841 8.65318 1.05362Z" fill="#ACACAC"/>
<path d="M34.2213 1.05362L35.5196 3.65016C35.6966 4.00423 36.1687 4.3583 36.5621 4.41732L38.9128 4.81073C40.4176 5.06645 40.7717 6.14834 39.6898 7.23023L37.8604 9.06945C37.5555 9.37434 37.3785 9.9743 37.4768 10.4071L37.9981 12.679C38.4112 14.4691 37.4571 15.1674 35.8736 14.233L33.6705 12.9249C33.2673 12.6889 32.6181 12.6889 32.2149 12.9249L30.0019 14.2232C28.4184 15.1575 27.4644 14.4592 27.8775 12.6692L28.3988 10.3972C28.4971 9.9743 28.3201 9.37434 28.0152 9.05961L26.1956 7.24007C25.1137 6.15818 25.4678 5.06645 26.9726 4.82057L29.3233 4.42715C29.7167 4.3583 30.1888 4.01407 30.3658 3.65999L31.6641 1.06345C32.3624 -0.352841 33.523 -0.352841 34.2213 1.05362Z" fill="#ACACAC"/>
<path d="M59.7894 1.05362L61.0877 3.65016C61.2647 4.00423 61.7368 4.3583 62.1302 4.41732L64.4809 4.81073C65.9857 5.06645 66.3398 6.14834 65.2579 7.23023L63.4285 9.06945C63.1236 9.37434 62.9466 9.9743 63.0449 10.4071L63.5662 12.679C63.9793 14.4691 63.0252 15.1674 61.4418 14.233L59.2386 12.9249C58.8354 12.6889 58.1862 12.6889 57.783 12.9249L55.57 14.2232C53.9865 15.1575 53.0325 14.4592 53.4456 12.6692L53.9669 10.3972C54.0652 9.9743 53.8882 9.37434 53.5833 9.05961L51.7637 7.24007C50.6819 6.15818 51.0359 5.06645 52.5407 4.82057L54.8914 4.42715C55.2848 4.3583 55.7569 4.01407 55.9339 3.65999L57.2322 1.06345C57.9305 -0.352841 59.0911 -0.352841 59.7894 1.05362Z" fill="#ACACAC"/>
<path d="M85.3575 1.05362L86.6558 3.65016C86.8328 4.00423 87.3049 4.3583 87.6983 4.41732L90.049 4.81073C91.5538 5.06645 91.9079 6.14834 90.826 7.23023L88.9966 9.06945C88.6917 9.37434 88.5147 9.9743 88.613 10.4071L89.1343 12.679C89.5474 14.4691 88.5934 15.1674 87.0099 14.233L84.8067 12.9249C84.4035 12.6889 83.7544 12.6889 83.3511 12.9249L81.1382 14.2232C79.5547 15.1575 78.6006 14.4592 79.0137 12.6692L79.535 10.3972C79.6333 9.9743 79.4563 9.37434 79.1514 9.05961L77.3319 7.24007C76.25 6.15818 76.604 5.06645 78.1089 4.82057L80.4595 4.42715C80.8529 4.3583 81.325 4.01407 81.5021 3.65999L82.8003 1.06345C83.4986 -0.352841 84.6592 -0.352841 85.3575 1.05362Z" fill="#ACACAC"/>
<path d="M110.925 1.05362L112.224 3.65016C112.401 4.00423 112.873 4.3583 113.266 4.41732L115.617 4.81073C117.122 5.06645 117.476 6.14834 116.394 7.23023L114.564 9.06945C114.26 9.37434 114.083 9.9743 114.181 10.4071L114.702 12.679C115.115 14.4691 114.161 15.1674 112.578 14.233L110.375 12.9249C109.971 12.6889 109.322 12.6889 108.919 12.9249L106.706 14.2232C105.123 15.1575 104.168 14.4592 104.582 12.6692L105.103 10.3972C105.201 9.9743 105.024 9.37434 104.719 9.05961L102.9 7.24007C101.818 6.15818 102.172 5.06645 103.677 4.82057L106.027 4.42715C106.421 4.3583 106.893 4.01407 107.07 3.65999L108.368 1.06345C109.067 -0.352841 110.227 -0.352841 110.925 1.05362Z" fill="#ACACAC"/>
</svg>
