<svg width="27" height="27" viewBox="0 0 27 27" fill="none" xmlns="http://www.w3.org/2000/svg">
<path d="M15.0451 3.84618L16.9736 7.70328C17.2366 8.2402 17.9379 8.75521 18.5296 8.85383L22.0251 9.43459C24.2605 9.80715 24.7864 11.4289 23.1757 13.0287L20.4581 15.7462C19.9979 16.2064 19.7459 17.094 19.8883 17.7296L20.6663 21.0936C21.28 23.7563 19.8664 24.7863 17.5105 23.3947L14.2342 21.4552C13.6425 21.1045 12.6672 21.1045 12.0646 21.4552L8.78822 23.3947C6.44328 24.7863 5.01878 23.7453 5.63241 21.0936L6.41041 17.7296C6.55286 17.094 6.30083 16.2064 5.84061 15.7462L3.1231 13.0287C1.52328 11.4289 2.03829 9.80715 4.27366 9.43459L7.76916 8.85383C8.34992 8.75521 9.05121 8.2402 9.31419 7.70328L11.2427 3.84618C12.2947 1.75326 14.0041 1.75326 15.0451 3.84618Z" stroke="#D4A80A" stroke-width="1.64365" stroke-linecap="round" stroke-linejoin="round"/>
</svg>
